<svg id="Layer_1" data-name="Layer 1" xmlns="http://www.w3.org/2000/svg" viewBox="0 0 66.51 84.07"><defs><style>.cls-1{fill:#fff;}</style></defs><title>guidebook</title><path class="cls-1" d="M86.93,9.95H68v5.73a30.06,30.06,0,1,0,0,48.76V66A16.05,16.05,0,0,1,52,82H48.74a16,16,0,0,1-12.17-5.75l-0.8-.95-0.83.93-6.85,7.68-0.67.75,0.69,0.72A27.79,27.79,0,0,0,48.26,94H52.5a28.07,28.07,0,0,0,28-28V21.79H86.9M51.55,57.22A17.15,17.15,0,1,1,68.7,40.07,17.17,17.17,0,0,1,51.55,57.22Z" transform="translate(-20.41 -9.95)"/></svg>