<?xml version="1.0" encoding="iso-8859-1"?>
<!-- Generator: Adobe Illustrator 18.1.0, SVG Export Plug-In . SVG Version: 6.00 Build 0)  -->
<svg version="1.1" id="Layer_1" xmlns="http://www.w3.org/2000/svg" xmlns:xlink="http://www.w3.org/1999/xlink" x="0px" y="0px"
	 viewBox="0 0 305 252" style="enable-background:new 0 0 305 252;" xml:space="preserve">
<path style="opacity:0.15;fill-rule:evenodd;clip-rule:evenodd;fill:#3E3E3E;" d="M155.415,245.396c42.498,0,76.95,1.531,76.95,3.42
	c0,1.889-34.452,3.42-76.95,3.42c-42.498,0-76.95-1.531-76.95-3.42C78.465,246.928,112.917,245.396,155.415,245.396z"/>
<path style="fill-rule:evenodd;clip-rule:evenodd;fill:#3E3E3E;" d="M0.66,184.892V7.906c0-3.777,3.062-6.84,6.84-6.84h289.845
	c3.778,0,6.84,3.062,6.84,6.84v176.985H0.66z"/>
<path style="fill-rule:evenodd;clip-rule:evenodd;fill:#E9E9E9;" d="M297.345,212.251H7.5c-3.777,0-6.84-3.062-6.84-6.84v-20.52
	h303.524v20.52C304.185,209.189,301.123,212.251,297.345,212.251z"/>
<path style="fill-rule:evenodd;clip-rule:evenodd;fill:#E9E9E9;" d="M104.115,248.017v-3.767l11.981-1.464l8.264-31.535h61.259
	l8.263,31.535l11.982,1.464v3.767H104.115z"/>
<path style="fill-rule:evenodd;clip-rule:evenodd;fill:#E9E9E9;" d="M155.415,5.423c0.887,0,1.605,0.719,1.605,1.605
	c0,0.887-0.719,1.605-1.605,1.605c-0.887,0-1.605-0.719-1.605-1.605C153.81,6.142,154.528,5.423,155.415,5.423z"/>
<path style="fill-rule:evenodd;clip-rule:evenodd;" d="M294.78,13.036v159.885H10.065V13.036H294.78z"/>
<path style="opacity:0.08;fill-rule:evenodd;clip-rule:evenodd;fill:#3E3E3E;" d="M123.241,217.222l1.119-5.971h61.259l1.118,5.971
	H123.241z"/>
<g>
	<defs>
		<rect id="SVGID_1_" x="50.19" y="66.499" width="82.735" height="50.132"/>
	</defs>
	<clipPath id="SVGID_2_">
		<use xlink:href="#SVGID_1_"  style="overflow:visible;"/>
	</clipPath>
	<path style="clip-path:url(#SVGID_2_);fill:#FFFFFF;" d="M92.06,83.891l-13.199-3.973l6.057,33.853c0,1.905,7.919,2.86,7.919,2.86
		L92.06,83.891z"/>
	<path style="clip-path:url(#SVGID_2_);fill:#CCCCCC;" d="M93.021,83.644l0.78,32.794c0,0,12.779-27.222,12.779-30.565
		c0-3.343,1.091-17.67,1.091-17.67L93.021,83.644z"/>
	<path style="clip-path:url(#SVGID_2_);fill:#A6CE39;" d="M122.868,88.716c-0.912,4.55-15.371,5.581-32.296,2.307
		c-16.925-3.276-29.905-9.62-28.993-14.168c0.823-4.104,12.664-5.345,27.393-3.149l-9.827,5.054l13.571,3.921l6.804-6.895
		C113.589,79.252,123.676,84.687,122.868,88.716 M101.746,73.538l6.016-6.099l-4.791-0.941l-9.961,5.123
		c-22.239-4.065-41.233-1.447-42.727,6c-1.523,7.59,15.72,17.321,38.516,21.732c22.795,4.41,42.51,1.834,44.032-5.757
		C134.184,86.856,120.737,78.431,101.746,73.538"/>
</g>
<g>
	<path style="fill:#CCCCCC;" d="M135.062,74.152c1.167-0.191,2.905-0.333,4.834-0.333c2.381,0,4.048,0.357,5.191,1.262
		c0.952,0.762,1.477,1.881,1.477,3.358c0,2.048-1.453,3.453-2.833,3.953v0.071c1.119,0.453,1.738,1.524,2.143,3.001
		c0.5,1.81,1,3.906,1.31,4.525h-3.715c-0.262-0.477-0.643-1.762-1.119-3.739c-0.429-2-1.119-2.548-2.596-2.572h-1.096v6.31h-3.596
		V74.152z M138.658,81.057h1.429c1.809,0,2.881-0.905,2.881-2.31c0-1.477-1-2.215-2.668-2.239c-0.881,0-1.381,0.072-1.643,0.119
		V81.057z"/>
	<path style="fill:#CCCCCC;" d="M150.66,85.32c0.119,1.5,1.595,2.214,3.286,2.214c1.238,0,2.238-0.167,3.214-0.476l0.477,2.453
		c-1.191,0.477-2.644,0.738-4.215,0.738c-3.953,0-6.215-2.31-6.215-5.953c0-2.953,1.833-6.215,5.882-6.215
		c3.762,0,5.191,2.929,5.191,5.81c0,0.619-0.071,1.167-0.119,1.429H150.66z M154.923,82.843c0-0.881-0.381-2.357-2.048-2.357
		c-1.524,0-2.143,1.381-2.238,2.357H154.923z"/>
	<path style="fill:#CCCCCC;" d="M159.233,86.819c0.667,0.405,2.048,0.881,3.119,0.881c1.096,0,1.548-0.381,1.548-0.976
		c0-0.595-0.357-0.881-1.714-1.333c-2.405-0.81-3.333-2.119-3.31-3.477c0-2.19,1.857-3.833,4.738-3.833
		c1.357,0,2.572,0.309,3.287,0.667l-0.643,2.5c-0.524-0.286-1.524-0.667-2.524-0.667c-0.881,0-1.381,0.357-1.381,0.953
		c0,0.548,0.453,0.833,1.881,1.333c2.215,0.762,3.144,1.881,3.167,3.596c0,2.167-1.715,3.786-5.049,3.786
		c-1.524,0-2.881-0.357-3.762-0.833L159.233,86.819z"/>
	<path style="fill:#CCCCCC;" d="M172.14,75.104c0,1-0.762,1.809-1.953,1.809c-1.143,0-1.905-0.81-1.881-1.809
		c-0.024-1.048,0.739-1.834,1.905-1.834C171.378,73.27,172.116,74.056,172.14,75.104z M168.402,89.987V78.343h3.619v11.645H168.402z
		"/>
	<path style="fill:#CCCCCC;" d="M185.023,73.08V86.51c0,1.31,0.048,2.691,0.095,3.477h-3.214l-0.167-1.715h-0.048
		c-0.738,1.31-2.143,1.977-3.643,1.977c-2.762,0-4.977-2.357-4.977-5.977c-0.024-3.929,2.429-6.191,5.215-6.191
		c1.429,0,2.548,0.5,3.072,1.31h0.048V73.08H185.023z M181.403,83.272c0-0.191-0.024-0.452-0.048-0.643
		c-0.214-0.976-1-1.786-2.119-1.786c-1.643,0-2.5,1.476-2.5,3.31c0,1.976,0.976,3.215,2.476,3.215c1.048,0,1.882-0.714,2.096-1.738
		c0.071-0.262,0.095-0.523,0.095-0.833V83.272z"/>
	<path style="fill:#CCCCCC;" d="M189.524,85.32c0.119,1.5,1.595,2.214,3.286,2.214c1.238,0,2.239-0.167,3.215-0.476l0.477,2.453
		c-1.191,0.477-2.644,0.738-4.215,0.738c-3.953,0-6.216-2.31-6.216-5.953c0-2.953,1.834-6.215,5.882-6.215
		c3.763,0,5.191,2.929,5.191,5.81c0,0.619-0.072,1.167-0.119,1.429H189.524z M193.787,82.843c0-0.881-0.382-2.357-2.048-2.357
		c-1.524,0-2.143,1.381-2.238,2.357H193.787z"/>
	<path style="fill:#CCCCCC;" d="M198.121,82.057c0-1.453-0.048-2.691-0.096-3.715h3.144l0.166,1.595h0.072
		c0.476-0.739,1.667-1.857,3.596-1.857c2.381,0,4.167,1.571,4.167,5.001v6.906h-3.62v-6.454c0-1.5-0.524-2.524-1.834-2.524
		c-1,0-1.595,0.691-1.833,1.358c-0.095,0.238-0.143,0.572-0.143,0.905v6.715h-3.619V82.057z"/>
	<path style="fill:#CCCCCC;" d="M214.79,75.175v3.167h2.596v2.667h-2.596v4.215c0,1.405,0.333,2.048,1.429,2.048
		c0.5,0,0.714-0.024,1.071-0.096l0.024,2.738c-0.476,0.191-1.334,0.333-2.358,0.333c-1.167,0-2.143-0.429-2.715-1.024
		c-0.667-0.69-1-1.81-1-3.453v-4.763h-1.548v-2.667h1.548v-2.191L214.79,75.175z"/>
	<path style="fill:#CCCCCC;" d="M222.029,75.104c0,1-0.762,1.809-1.953,1.809c-1.143,0-1.905-0.81-1.881-1.809
		c-0.024-1.048,0.738-1.834,1.905-1.834C221.267,73.27,222.005,74.056,222.029,75.104z M218.291,89.987V78.343h3.62v11.645H218.291z
		"/>
	<path style="fill:#CCCCCC;" d="M233.34,87.153c0,1.119,0.048,2.191,0.167,2.834h-3.262l-0.214-1.167h-0.072
		c-0.762,0.929-1.953,1.429-3.334,1.429c-2.357,0-3.762-1.714-3.762-3.572c0-3.024,2.715-4.477,6.834-4.453v-0.167
		c0-0.619-0.333-1.5-2.119-1.5c-1.19,0-2.453,0.405-3.215,0.881l-0.667-2.334c0.809-0.453,2.405-1.024,4.525-1.024
		c3.881,0,5.119,2.286,5.119,5.024V87.153z M229.816,84.487c-1.905-0.024-3.381,0.428-3.381,1.833c0,0.929,0.619,1.381,1.428,1.381
		c0.905,0,1.644-0.595,1.882-1.333c0.048-0.191,0.071-0.405,0.071-0.619V84.487z"/>
	<path style="fill:#CCCCCC;" d="M235.008,73.08h3.619v16.907h-3.619V73.08z"/>
</g>
<g>
	<path style="fill:#A6CE39;" d="M147.072,107.829c-0.667,0.333-2.167,0.714-4.12,0.714c-5.548,0-8.405-3.476-8.405-8.048
		c0-5.477,3.905-8.525,8.763-8.525c1.882,0,3.31,0.381,3.953,0.714l-0.738,2.881c-0.739-0.309-1.762-0.595-3.048-0.595
		c-2.881,0-5.12,1.738-5.12,5.31c0,3.215,1.905,5.239,5.144,5.239c1.096,0,2.31-0.238,3.024-0.524L147.072,107.829z"/>
	<path style="fill:#A6CE39;" d="M158.836,102.328c0,4.263-3.024,6.215-6.144,6.215c-3.405,0-6.024-2.238-6.024-6
		c0-3.763,2.476-6.168,6.215-6.168C156.454,96.375,158.836,98.827,158.836,102.328z M150.406,102.447c0,2,0.834,3.501,2.382,3.501
		c1.404,0,2.31-1.405,2.31-3.501c0-1.738-0.667-3.5-2.31-3.5C151.049,98.947,150.406,100.733,150.406,102.447z"/>
	<path style="fill:#A6CE39;" d="M159.527,100.351c0-1.452-0.048-2.691-0.095-3.715h3.048l0.167,1.572h0.071
		c0.5-0.738,1.524-1.833,3.525-1.833c1.5,0,2.69,0.762,3.191,1.976h0.047c0.429-0.619,0.953-1.071,1.5-1.405
		c0.643-0.381,1.358-0.571,2.214-0.571c2.239,0,3.929,1.571,3.929,5.048v6.858H173.6v-6.334c0-1.691-0.548-2.667-1.715-2.667
		c-0.834,0-1.429,0.572-1.667,1.262c-0.096,0.262-0.143,0.643-0.143,0.929v6.811h-3.524v-6.525c0-1.476-0.524-2.476-1.667-2.476
		c-0.929,0-1.477,0.714-1.69,1.31c-0.119,0.286-0.143,0.619-0.143,0.905v6.787h-3.524V100.351z"/>
	<path style="fill:#A6CE39;" d="M178.459,100.542c0-1.524-0.048-2.834-0.096-3.905h3.144l0.166,1.619h0.048
		c0.857-1.238,2.191-1.881,3.882-1.881c2.548,0,4.834,2.215,4.834,5.929c0,4.239-2.691,6.239-5.287,6.239
		c-1.405,0-2.5-0.571-3.024-1.333h-0.048v5.786h-3.619V100.542z M182.077,103.28c0,0.286,0.024,0.548,0.072,0.762
		c0.238,0.976,1.071,1.714,2.119,1.714c1.572,0,2.5-1.31,2.5-3.286c0-1.858-0.834-3.262-2.453-3.262
		c-1.024,0-1.929,0.762-2.167,1.834c-0.048,0.191-0.072,0.428-0.072,0.643V103.28z"/>
	<path style="fill:#A6CE39;" d="M202.128,104.543c0,1.524,0.048,2.762,0.095,3.739h-3.143l-0.167-1.643h-0.071
		c-0.453,0.714-1.548,1.905-3.643,1.905c-2.358,0-4.096-1.476-4.096-5.072v-6.834h3.643v6.263c0,1.691,0.548,2.715,1.81,2.715
		c1.001,0,1.572-0.69,1.81-1.262c0.095-0.214,0.119-0.5,0.119-0.786v-6.929h3.643V104.543z"/>
	<path style="fill:#A6CE39;" d="M207.534,93.47v3.167h2.596v2.667h-2.596v4.215c0,1.405,0.333,2.048,1.429,2.048
		c0.5,0,0.714-0.024,1.072-0.096l0.024,2.739c-0.477,0.191-1.334,0.333-2.358,0.333c-1.167,0-2.143-0.429-2.715-1.024
		c-0.667-0.69-1-1.81-1-3.453v-4.763h-1.548v-2.667h1.548v-2.191L207.534,93.47z"/>
	<path style="fill:#A6CE39;" d="M214.416,93.398c0,1-0.762,1.81-1.953,1.81c-1.143,0-1.905-0.81-1.881-1.81
		c-0.024-1.048,0.738-1.834,1.905-1.834S214.393,92.35,214.416,93.398z M210.678,108.281V96.637h3.62v11.645H210.678z"/>
	<path style="fill:#A6CE39;" d="M215.654,100.351c0-1.452-0.048-2.691-0.095-3.715h3.143l0.167,1.595h0.071
		c0.476-0.738,1.667-1.857,3.596-1.857c2.381,0,4.167,1.571,4.167,5.001v6.906h-3.619v-6.454c0-1.5-0.524-2.524-1.833-2.524
		c-1,0-1.595,0.69-1.833,1.357c-0.095,0.238-0.143,0.572-0.143,0.905v6.715h-3.619V100.351z"/>
	<path style="fill:#A6CE39;" d="M239.087,106.591c0,2.238-0.452,4.072-1.762,5.238c-1.286,1.096-3.024,1.429-4.738,1.429
		c-1.524,0-3.143-0.309-4.191-0.905l0.714-2.739c0.738,0.428,2.024,0.881,3.382,0.881c1.714,0,3.024-0.928,3.024-3.072v-0.762
		h-0.048c-0.69,0.977-1.81,1.524-3.143,1.524c-2.881,0-4.929-2.334-4.929-5.691c0-3.739,2.429-6.12,5.286-6.12
		c1.596,0,2.596,0.69,3.191,1.643h0.048l0.119-1.381h3.144c-0.048,0.739-0.096,1.714-0.096,3.453V106.591z M235.467,101.375
		c0-0.238-0.024-0.476-0.072-0.667c-0.262-0.953-0.952-1.595-1.952-1.595c-1.31,0-2.381,1.19-2.381,3.31
		c0,1.738,0.857,3.096,2.381,3.096c0.929,0,1.667-0.619,1.905-1.477c0.095-0.262,0.119-0.643,0.119-0.953V101.375z"/>
</g>
</svg>
