<?xml version="1.0" encoding="iso-8859-1"?>
<!-- Generator: Adobe Illustrator 18.1.0, SVG Export Plug-In . SVG Version: 6.00 Build 0)  -->
<svg version="1.1" id="Layer_1" xmlns="http://www.w3.org/2000/svg" xmlns:xlink="http://www.w3.org/1999/xlink" x="0px" y="0px"
	 viewBox="0 0 305 252" style="enable-background:new 0 0 305 252;" xml:space="preserve">
<path style="opacity:0.15;fill-rule:evenodd;clip-rule:evenodd;fill:#3E3E3E;" d="M155.415,245.396c42.498,0,76.95,1.531,76.95,3.42
	c0,1.889-34.452,3.42-76.95,3.42c-42.498,0-76.95-1.531-76.95-3.42C78.465,246.928,112.917,245.396,155.415,245.396z"/>
<path style="fill-rule:evenodd;clip-rule:evenodd;fill:#3E3E3E;" d="M0.66,184.892V7.906c0-3.777,3.062-6.84,6.84-6.84h289.845
	c3.778,0,6.84,3.062,6.84,6.84v176.985H0.66z"/>
<path style="fill-rule:evenodd;clip-rule:evenodd;fill:#E9E9E9;" d="M297.345,212.251H7.5c-3.777,0-6.84-3.062-6.84-6.84v-20.52
	h303.524v20.52C304.185,209.189,301.123,212.251,297.345,212.251z"/>
<path style="fill-rule:evenodd;clip-rule:evenodd;fill:#E9E9E9;" d="M104.115,248.017v-3.767l11.981-1.464l8.264-31.535h61.259
	l8.263,31.535l11.982,1.464v3.767H104.115z"/>
<path style="fill-rule:evenodd;clip-rule:evenodd;fill:#E9E9E9;" d="M155.415,5.423c0.887,0,1.605,0.719,1.605,1.605
	c0,0.887-0.719,1.605-1.605,1.605c-0.887,0-1.605-0.719-1.605-1.605C153.81,6.142,154.528,5.423,155.415,5.423z"/>
<path style="fill-rule:evenodd;clip-rule:evenodd;fill:#18305A;" d="M294.78,13.036v159.885H10.065V13.036H294.78z"/>
<path style="opacity:0.08;fill-rule:evenodd;clip-rule:evenodd;fill:#3E3E3E;" d="M123.241,217.222l1.119-5.971h61.259l1.118,5.971
	H123.241z"/>
<path style="fill:#D79B28;" d="M59.083,86.439c-1.733-1.109-3.744-1.733-6.031-1.733c-4.714,0-8.18,3.362-8.18,9.255
	c0,5.719,3.293,9.289,8.25,9.289c2.357,0,4.575-0.831,6.066-1.94l0.415,2.184c-1.594,1.039-3.986,1.768-6.516,1.768
	c-6.274,0-10.469-4.368-10.469-11.231c0-6.898,4.402-11.335,10.469-11.335c2.634,0,5.095,0.797,6.69,1.768
	C59.776,84.463,59.083,86.439,59.083,86.439z M82.791,104.81h-2.253l-2.288-6.205h-9.809l-2.287,6.205H63.9l8.216-21.664h2.6
	C74.715,83.146,82.791,104.81,82.791,104.81z M73.363,85.33l-4.159,11.266h8.284C77.488,96.596,73.363,85.33,73.363,85.33z
	 M88.164,104.81V83.146h2.218v19.584h10.711v2.08C101.093,104.81,88.164,104.81,88.164,104.81z"/>
<path style="fill:#E6E9EE;" d="M122.479,87.999c-1.733-1.144-3.605-1.733-5.685-1.733c-4.229,0-7.036,2.912-7.036,7.626
	c0,4.784,2.738,7.799,7.106,7.799c2.218,0,4.333-0.832,5.927-1.94l0.797,3.882c-1.732,1.04-4.437,1.698-6.898,1.698
	c-6.655,0-11.196-4.193-11.196-11.3c0-6.932,4.541-11.404,11.3-11.404c2.53,0,5.13,0.659,7.002,1.698
	C123.796,84.325,122.479,87.999,122.479,87.999z M130.693,104.81V83.146h14.767v3.57h-10.607v5.443h8.701v3.57h-8.701v5.512h10.607
	v3.57h-14.767L130.693,104.81z M167.54,83.146h4.021v21.872h-4.506L156.69,89.073v15.737h-4.021V83.147h4.611l10.26,15.771
	L167.54,83.146L167.54,83.146z M189.342,86.855v17.956h-4.194V86.855h-7.244v-3.709h18.683v3.709H189.342L189.342,86.855z
	 M207.159,104.81h-4.229V83.146h7.591c5.477,0,8.388,2.6,8.388,6.586c0,3.085-1.733,5.233-4.679,6.239l5.685,8.839h-4.818
	l-4.819-7.938l-3.119,0.208L207.159,104.81L207.159,104.81z M210.278,93.683c2.6-0.138,4.298-1.317,4.298-3.674
	c0-2.253-1.698-3.328-4.714-3.328h-2.739v7.072L210.278,93.683L210.278,93.683z M244.455,104.81h-4.264l-1.802-5.13h-8.735
	l-1.768,5.13h-4.264l7.903-21.664h5.13L244.455,104.81z M234.056,86.786l-3.294,9.393h6.551L234.056,86.786L234.056,86.786z
	 M250.208,104.81V83.146h4.229v17.955h9.775v3.709H250.208z"/>
</svg>
