<?xml version="1.0" encoding="utf-8"?>
<!-- Generator: Adobe Illustrator 18.1.0, SVG Export Plug-In . SVG Version: 6.00 Build 0)  -->
<svg version="1.1" id="Layer_1" xmlns="http://www.w3.org/2000/svg" xmlns:xlink="http://www.w3.org/1999/xlink" x="0px" y="0px"
	 viewBox="0 0 305 252" enable-background="new 0 0 305 252" xml:space="preserve">
<path opacity="0.15" fill="#3E3E3E" enable-background="new    " d="M155.4,245.4c42.5,0,76.9,1.5,76.9,3.4c0,1.9-34.5,3.4-76.9,3.4
	s-76.9-1.5-76.9-3.4C78.5,246.9,112.9,245.4,155.4,245.4z"/>
<path fill="#3E3E3E" d="M0.7,184.9V7.9c0-3.8,3.1-6.8,6.8-6.8h289.8c3.8,0,6.8,3.1,6.8,6.8v177L0.7,184.9L0.7,184.9z"/>
<path fill="#E9E9E9" d="M297.3,212.3H7.5c-3.8,0-6.8-3.1-6.8-6.8v-20.5h303.5v20.5C304.2,209.2,301.1,212.3,297.3,212.3z"/>
<path fill="#E9E9E9" d="M104.1,248v-3.8l12-1.5l8.3-31.5h61.3l8.3,31.5l12,1.5v3.8H104.1z"/>
<path fill="#E9E9E9" d="M155.4,5.4c0.9,0,1.6,0.7,1.6,1.6c0,0.9-0.7,1.6-1.6,1.6c-0.9,0-1.6-0.7-1.6-1.6
	C153.8,6.1,154.5,5.4,155.4,5.4z"/>
<path fill="#002744" d="M294.8,13v159.9H10.1V13H294.8z"/>
<path opacity="8.000000e-02" fill="#3E3E3E" enable-background="new    " d="M123.2,217.2l1.1-6h61.3l1.1,6H123.2z"/>
<path fill="#FFC627" d="M237.8,93.6c0,1.9-2.4,3.4-5.3,3.4H77.7c-2.9,0-5.3-1.5-5.3-3.4c0-1.9,2.4-3.4,5.3-3.4h154.8
	C235.4,90.2,237.8,91.8,237.8,93.6"/>
<path fill="#FFFFFF" d="M119.3,93.6c0,12.5-10.1,22.6-22.6,22.6c-12.5,0-22.6-10.1-22.6-22.6C74.2,81.2,84.3,71,96.7,71
	C109.2,71,119.3,81.2,119.3,93.6"/>
<path fill="#FFC627" d="M119,93.6h-2.9c0,5.4-2.2,10.3-5.8,13.9c-3.6,3.6-8.5,5.8-13.9,5.8s-10.3-2.2-13.9-5.8
	c-3.6-3.6-5.8-8.5-5.8-13.9c0-5.4,2.2-10.3,5.8-13.9C86.1,76.2,91,74,96.4,74c5.4,0,10.3,2.2,13.9,5.8c3.6,3.6,5.8,8.5,5.8,13.9H119
	h2.9c0-7-2.9-13.4-7.5-18c-4.6-4.6-11-7.5-18-7.5c-7,0-13.4,2.9-18,7.5c-4.6,4.6-7.5,11-7.5,18c0,7,2.9,13.4,7.5,18
	c4.6,4.6,11,7.5,18,7.5c7,0,13.4-2.9,18-7.5c4.6-4.6,7.5-11,7.5-18H119z"/>
<path fill="#FFFFFF" d="M177.5,93.8c0,12.5-10.1,22.6-22.6,22.6c-12.5,0-22.6-10.1-22.6-22.6s10.1-22.6,22.6-22.6
	C167.4,71.2,177.5,81.3,177.5,93.8"/>
<path fill="#FFC627" d="M177.5,93.5h-2.9c0,5.4-2.2,10.3-5.8,13.9c-3.6,3.6-8.5,5.8-13.9,5.8c-5.4,0-10.3-2.2-13.9-5.8
	c-3.6-3.6-5.8-8.5-5.8-13.9c0-5.4,2.2-10.3,5.8-13.9c3.6-3.6,8.5-5.8,13.9-5.8c5.4,0,10.3,2.2,13.9,5.8c3.6,3.6,5.8,8.5,5.8,13.9
	H177.5h2.9c0-7-2.9-13.4-7.5-18c-4.6-4.6-11-7.5-18-7.5c-7,0-13.4,2.9-18,7.5c-4.6,4.6-7.5,11-7.5,18c0,7,2.9,13.4,7.5,18
	c4.6,4.6,11,7.5,18,7.5c7,0,13.4-2.9,18-7.5c4.6-4.6,7.5-11,7.5-18H177.5z"/>
<path fill="#FFFFFF" d="M235.8,93.6c0,12.5-10.1,22.6-22.6,22.6c-12.5,0-22.6-10.1-22.6-22.6c0-12.5,10.1-22.6,22.6-22.6
	C225.7,71,235.8,81.1,235.8,93.6"/>
<path fill="#FFC627" d="M235.8,93.4h-2.9c0,5.4-2.2,10.3-5.8,13.9c-3.6,3.6-8.5,5.8-13.9,5.8c-5.4,0-10.3-2.2-13.9-5.8
	c-3.6-3.6-5.8-8.5-5.8-13.9c0-5.4,2.2-10.3,5.8-13.9c3.6-3.6,8.5-5.8,13.9-5.8c5.4,0,10.3,2.2,13.9,5.8c3.6,3.6,5.8,8.5,5.8,13.9
	H235.8h2.9c0-7-2.9-13.4-7.5-18c-4.6-4.6-11-7.5-18-7.5c-7,0-13.4,2.9-18,7.5c-4.6,4.6-7.5,11-7.5,18c0,7,2.9,13.4,7.5,18
	c4.6,4.6,11,7.5,18,7.5c7,0,13.4-2.9,18-7.5c4.6-4.6,7.5-11,7.5-18H235.8z"/>
<path fill="#002E6D" d="M96,82.5c-3.5,0-6,1-7.5,2.9c-1.3,1.7-2,4.2-2,7.5c0,6.4,3.1,9.6,9.4,9.6h7.1V99h-7c-1.6,0-2.9-0.4-3.6-1.1
	c-0.8-0.7-1.1-2-1.1-3.8H103v-3.5H91.3c0.2-3.1,1.8-4.7,4.8-4.7h7v-3.5H96z"/>
<path fill="#002E6D" d="M205.6,84.4c-1,0.9-1.5,2.4-1.5,4.4c-0.1,3.8,2.1,5.7,6.6,5.7h4.9c1.2,0,2,0.2,2.5,0.6
	c0.3,0.3,0.4,0.7,0.4,1.3c0,0.9-0.2,1.5-0.6,1.9c-0.5,0.5-1.3,0.7-2.6,0.7h-10.3v3.5h11c2.5,0,4.3-0.5,5.4-1.6
	c1-0.9,1.5-2.4,1.5-4.3c0-1.9-0.4-3.3-1.3-4.1c-1-0.9-2.7-1.4-5-1.4H211c-1.8,0-2.6-0.7-2.6-2.1c0-1.7,1.1-2.6,3.2-2.6h10.2v-3.5
	H211C208.5,82.8,206.7,83.3,205.6,84.4"/>
<polygon fill="#002E6D" points="156.7,87.1 163.1,87.1 163.1,83.6 146.1,83.6 146.1,87.1 152.4,87.1 152.4,103.3 156.7,103.3 "/>
</svg>
