<svg id="Layer_1" data-name="Layer 1" xmlns="http://www.w3.org/2000/svg" viewBox="0 0 293.85 530.5"><defs><style>.cls-1{fill:#55777a;}.cls-2{fill:#5a8e88;}.cls-3{fill:#81a9a6;}.cls-4{fill:#93b7b6;}.cls-5{fill:#93b8b8;}.cls-6{fill:#80aaa8;}.cls-7{fill:#d2754b;}.cls-8{fill:#f09475;}.cls-9{fill:#b45635;}</style></defs><title>succulent</title><path class="cls-1" d="M302,115S85,229,213,468l126-26S220,246,302,115Z" transform="translate(-84.63 -115)"/><path class="cls-2" d="M238.5,244.5s-74,105-50,271l91-49S215.5,396.5,238.5,244.5Z" transform="translate(-84.63 -115)"/><path class="cls-3" d="M294,179s5,242-130,255l147,90S356,240,294,179Z" transform="translate(-84.63 -115)"/><path class="cls-4" d="M360,226s4,200-207,259l141-18S426,421,360,226Z" transform="translate(-84.63 -115)"/><path class="cls-5" d="M219,143S52,211,154,499l70-54S127.5,372.5,219,143Z" transform="translate(-84.63 -115)"/><path class="cls-6" d="M111,214s-71,96,20,243,32.5-5.5,32.5-5.5S97.5,239.5,111,214Z" transform="translate(-84.63 -115)"/><polygon class="cls-7" points="4.87 303.5 286.87 303.5 251.87 530.5 40.87 530.5 4.87 303.5"/><polygon class="cls-8" points="25.33 432.48 48.37 409 68.37 432 87.37 409 108.37 432 127.37 409 145.37 432 165.37 409 181.37 432 203.37 409 222.37 432 242.37 409 266.98 432.48 254.37 530 41.37 530 25.33 432.48"/><circle class="cls-9" cx="194.37" cy="377" r="7"/><circle class="cls-9" cx="231.37" cy="399" r="5"/><circle class="cls-9" cx="226.37" cy="368" r="5"/><circle class="cls-9" cx="207.87" cy="322.5" r="6.5"/><circle class="cls-9" cx="242.37" cy="343" r="6"/><circle class="cls-9" cx="263.87" cy="322.5" r="6.5"/><circle class="cls-9" cx="258.37" cy="381" r="4"/><circle class="cls-9" cx="262.87" cy="357.5" r="4.5"/><circle class="cls-9" cx="225.37" cy="333" r="4"/><circle class="cls-9" cx="211.87" cy="346.5" r="3.5"/></svg>